<?xml version="1.0" encoding="utf-8"?>
<!-- Generator: Adobe Illustrator 21.0.2, SVG Export Plug-In . SVG Version: 6.00 Build 0)  -->
<svg version="1.1" id="el_x5F_layout_x5F_1_x5C_2" xmlns="http://www.w3.org/2000/svg" xmlns:xlink="http://www.w3.org/1999/xlink"
	 x="0px" y="0px" viewBox="0 0 40 40" style="enable-background:new 0 0 40 40;" xml:space="preserve">
<style type="text/css">
	.st0{fill:#000000;}
</style>
<path class="st0" d="M10,29.4v-5.8C9.3,24.5,8.2,25,7,25c-2.2,0-4-1.8-4-4s1.8-4,4-4c1.2,0,2.3,0.5,3,1.4v-5.8
	c0-0.8,0.7-1.5,1.5-1.5h5.8C16.5,10.3,16,9.2,16,8c0-2.2,1.8-4,4-4c2.2,0,4,1.8,4,4c0,1.2-0.5,2.3-1.4,3h5.8c0.8,0,1.5,0.7,1.5,1.5
	v5.8c0.7-0.8,1.8-1.3,3-1.3c2.2,0,4,1.8,4,4s-1.8,4-4,4c-1.2,0-2.3-0.5-3-1.3v5.8c0,0.8-0.7,1.5-1.5,1.5H23c0.6-0.7,1-1.6,1-2.7
	c0-2.2-1.8-4-4-4c-2.2,0-4,1.8-4,4c0,1,0.4,2,1,2.7h-5.5C10.7,31,10,30.3,10,29.4z"/>
</svg>
