<?xml version="1.0" encoding="utf-8"?>
<!-- Generator: Adobe Illustrator 21.0.2, SVG Export Plug-In . SVG Version: 6.00 Build 0)  -->
<svg version="1.1" id="el_x5F_finance" xmlns="http://www.w3.org/2000/svg" xmlns:xlink="http://www.w3.org/1999/xlink" x="0px"
	 y="0px" viewBox="0 0 40 40" style="enable-background:new 0 0 40 40;" xml:space="preserve">
<style type="text/css">
	.st0{fill:#000000;}
</style>
<path class="st0" d="M34.9,37H4.1C3.5,37,3,36.5,3,35.9C3,26.6,3,17.3,3,8h6v9.9l9-7.9v8l9-8v8l9-8v25.9C36,36.5,35.5,37,34.9,37z
	 M9,24H6v3h3V24z M9,30H6v3h3V30z M15,24h-3v3h3V24z M15,30h-3v3h3V30z M21,24h-3v3h3V24z M21,30h-3v3h3V30z M27,24h-3v3h3V24z
	 M27,30h-3v3h3V30z M33,24h-3v3h3V24z M33,30h-3v3h3V30z M3,4.1C3,3.5,3.5,3,4.1,3h3.8C8.5,3,9,3.5,9,4.1V6H3V4.1z"/>
</svg>
