<?xml version="1.0" encoding="utf-8"?>
<!-- Generator: Adobe Illustrator 21.0.2, SVG Export Plug-In . SVG Version: 6.00 Build 0)  -->
<svg version="1.1" id="el_x5F_layout_x5F_2_x5C_2" xmlns="http://www.w3.org/2000/svg" xmlns:xlink="http://www.w3.org/1999/xlink"
	 x="0px" y="0px" viewBox="0 0 40 40" style="enable-background:new 0 0 40 40;" xml:space="preserve">
<style type="text/css">
	.st0{fill:#000000;}
</style>
<path class="st0" d="M37,4.2v30.6c0,1.2-1,2.2-2.2,2.2H4.2C3,37,2,36,2,34.8V4.2C2,3,3,2,4.2,2h30.6C36,2,37,3,37,4.2L37,4.2z
	 M34,18v-5H5v5H34L34,18z M5,21v5h29v-5L5,21L5,21z M34,10V5H5v5H34L34,10z M5,29v5h29v-5C34,29,5,29,5,29z"/>
</svg>
