<?xml version="1.0" encoding="utf-8"?>
<!-- Generator: Adobe Illustrator 21.0.2, SVG Export Plug-In . SVG Version: 6.00 Build 0)  -->
<svg version="1.1" id="el_x5F_user" xmlns="http://www.w3.org/2000/svg" xmlns:xlink="http://www.w3.org/1999/xlink" x="0px"
	 y="0px" viewBox="0 0 40 40" style="enable-background:new 0 0 40 40;" xml:space="preserve">
<style type="text/css">
	.st0{fill:#000000;}
</style>
<path class="st0" d="M4.7,29l10.2-5.5c1.5,0.9,3.2,1.4,5.1,1.4v0h0h0v0c1.8,0,3.6-0.5,5.1-1.4L35.3,29c1.1,0.6,1.7,1.7,1.7,2.9v2.8
	c0,1.2-1,2.2-2.2,2.2H5.2C4,37,3,36,3,34.8V32C3,30.7,3.6,29.6,4.7,29L4.7,29z M20,3L20,3L20,3L20,3L20,3c-2.4,0-4.6,1.1-6.2,2.9
	c-1.6,1.8-2.6,4.3-2.6,7.1h0v0v0h0c0,2.8,1,5.3,2.6,7.1c1.5,1.7,3.6,2.8,5.9,2.9c0.1,0,0.1,0,0.2,0h0h0h0h0h0h0h0h0h0v0l0,0h0h0l0,0
	v0h0h0h0h0h0h0h0h0h0c0.1,0,0.1,0,0.2,0c2.3-0.1,4.4-1.2,5.9-2.9c1.6-1.8,2.6-4.3,2.6-7.1h0v0v0h0c0-2.8-1-5.3-2.6-7.1l0,0
	C24.6,4.1,22.4,3,20,3z"/>
</svg>
