<svg id="Layer_1" data-name="Layer 1" xmlns="http://www.w3.org/2000/svg" viewBox="0 0 508.55 435.17"><defs><style>.cls-1{fill:#fff;}</style></defs><title>coes-assets</title><path class="cls-1" d="M259.27,361.09h0Z"/><path class="cls-1" d="M312.37,322a28.85,28.85,0,0,0-6.88-8.16,9.52,9.52,0,0,0-3.12-6.57c-4.92-4.66-16.31-4.4-16.31-3.37,0,.37-.14,1.56-.3,3a18.5,18.5,0,0,0-4.44,1.23c-16.94,7.12-22.85,6.91-22.85,6.91s-6.46.42-22.47-6.66a18.66,18.66,0,0,0-5.06-1.42c-.16-1.44-.3-2.65-.3-3,0-1-11.39-1.29-16.31,3.37a9.53,9.53,0,0,0-3.14,7,28.72,28.72,0,0,0-6.42,7.77c-7.44,13.28-18.58,54.72-3.44,66.13a7.79,7.79,0,0,0,9.32.08,22.45,22.45,0,0,0,5-5.61c5.85-8.8,8.24-19.16,14.89-20.46a10.6,10.6,0,0,0,9,4.4,16.57,16.57,0,0,0,13-5.7s4,.2,5.95.25,5.95-.25,5.95-.25a16.57,16.57,0,0,0,13,5.7,10.6,10.6,0,0,0,9-4.4c6.65,1.29,9,11.65,14.89,20.46a22.45,22.45,0,0,0,5,5.61,7.79,7.79,0,0,0,9.32-.08C331,376.7,319.81,335.27,312.37,322Zm-96.17,1a.45.45,0,0,1,.45-.45H223a.45.45,0,0,1,.45.45v4.55a.45.45,0,0,1-.12.31l-3.19,3.42a.45.45,0,0,1-.65,0l-3.17-3.17a.45.45,0,0,1-.13-.32Zm-2.52,14.76a.45.45,0,0,1-.32.13h-4.8a.45.45,0,0,1-.45-.45V331a.45.45,0,0,1,.45-.45h4.55a.45.45,0,0,1,.31.12l3.42,3.19a.45.45,0,0,1,0,.65Zm9.77,7.77a.45.45,0,0,1-.45.45h-6.35a.45.45,0,0,1-.45-.45v-4.55a.45.45,0,0,1,.12-.31l3.19-3.42a.45.45,0,0,1,.65,0l3.17,3.17a.45.45,0,0,1,.13.32Zm8.09-8.09a.45.45,0,0,1-.45.45h-4.55a.45.45,0,0,1-.31-.12l-3.42-3.19a.45.45,0,0,1,0-.65l3.17-3.17a.45.45,0,0,1,.32-.13h4.8a.45.45,0,0,1,.45.45Zm9.71,25a8.55,8.55,0,1,1,8.55-8.55A8.55,8.55,0,0,1,241.25,362.38ZM297,321.89a4.16,4.16,0,1,1-4.16,4.16A4.16,4.16,0,0,1,297,321.89Zm-20.61,40.49a8.55,8.55,0,1,1,8.55-8.55A8.55,8.55,0,0,1,276.42,362.38Zm12.51-24.08a4.16,4.16,0,1,1,4.16-4.16A4.16,4.16,0,0,1,288.93,338.3Zm8.1,8.1a4.16,4.16,0,1,1,4.16-4.16A4.16,4.16,0,0,1,297,346.4Zm8.1-8.1a4.16,4.16,0,1,1,4.16-4.16A4.16,4.16,0,0,1,305.13,338.3Z"/><path class="cls-1" d="M246.71,153.25c.26,3.47,1.88,4.67,4.3,4.49s3.85-1.61,3.59-5.08l-1.94-26.19c-.26-3.47-1.88-4.67-4.31-4.49s-3.85,1.61-3.59,5.08Z"/><path class="cls-1" d="M226.83,136l-.54-7.28c-.26-3.46-1.66-4.48-4.08-4.3l-3.6.27,1.22,16.42,3.6-.27C225.85,140.72,227.08,139.51,226.83,136Z"/><path class="cls-1" d="M280.44,125.17c-.26-3.46-1.55-4.9-4.25-4.7l-3.68.27,1.11,14.9,3-.22c2.84-.21,4.48-1.59,4.19-5.47Z"/><path class="cls-1" d="M336.71,228.72a4.14,4.14,0,0,0-3.11-1l-8.55.59a4.28,4.28,0,0,0-4,4.57l1.18,17.09a4.28,4.28,0,0,0,4.57,4l8.55-.59a4.29,4.29,0,0,0,4-4.57l-1.18-17.09A4.13,4.13,0,0,0,336.71,228.72Z"/><path class="cls-1" d="M508.55,286.62l-20.07-38.57,13.88-41.2-39.75,2.91-1.55-20.05-23.62,1.73,3.79-26.69h.09L440.16,173l32.26-10.64.37,0-6.47-79.77-13.56,1,2.66-18.72L257.86,0,61.72,64.9l4.69,33L0,102.25l21.74,38.51L6.47,182l43.27-2.83L51,194.59l28.82-2.2,2.39,16.86-32.15,10.6,6.18,79.77,38.4-2.82L109,398.33l148.81,36.84,150.23-36.83,6.12-43.13h.57c.13,0-.11,0-.56-.06l.32-2.27c.23,0,.34,0,.24,0h-.24l11.4-80.34H426l-2.89,20.38Zm-118-28.52-8.54.59-18.5-25.47,1.25,18.07,4.27-.3.59,8.55-17.09,1.18-.59-8.55,4.27-.29-1.77-25.64-4.27.29-.59-8.54,12.82-.88,18.5,25.46-1.25-18.07-4.27.29-.59-8.54,17.09-1.18.59,8.54-4.27.29ZM92.84,216.71l-3.56-25L431.57,165.5l-3.78,26.66Zm254.4,36.52a12.9,12.9,0,0,1-6.37,7.28,12.57,12.57,0,0,1-4.91,1.35l-8.55.59a12.52,12.52,0,0,1-5.08-.66,13,13,0,0,1-7.27-6.34,12.44,12.44,0,0,1-1.35-4.94l-1.18-17.09a12.51,12.51,0,0,1,.67-5,12.89,12.89,0,0,1,6.33-7.31,12.47,12.47,0,0,1,4.94-1.35l8.55-.59a12.58,12.58,0,0,1,5,.66,12.82,12.82,0,0,1,7.31,6.37,12.52,12.52,0,0,1,1.35,4.91l1.18,17.09A12.5,12.5,0,0,1,347.24,253.24ZM295.58,230.3l-4.27.29-.59-8.54,17.09-1.18.59,8.54-4.27.29,1.77,25.64,4.27-.29.59,8.55-17.09,1.18-.59-8.55,4.27-.29Zm-26.86,27.61,4.27-.29.59,8.55-17.09,1.18-.59-8.55,4.27-.29-1.77-25.64-4.27.29-.59-8.54,20.08-1.38a13.48,13.48,0,0,1,5.39.7,13.66,13.66,0,0,1,7.8,6.79,13.83,13.83,0,0,1,.73,10.65,13.73,13.73,0,0,1-6.79,7.77,13.43,13.43,0,0,1-5.24,1.44l-7.26.5ZM238,241.63l-7.62,14.08-9.48-12.9,1.26,18.31,4.27-.29.59,8.55L210,270.55l-.59-8.55,4.27-.29-1.77-25.64-4.27.29-.59-8.54,12.94-.89,9.35,12.78,7.5-13.95,12.94-.89.59,8.54-4.27.29,1.77,25.64,4.27-.29.59,8.55-17.09,1.18-.59-8.55,4.27-.29ZM191,259l-13.19.91-1,4.36,4-.28.59,8.55-17.09,1.18-.59-8.55,4.15-.29,7.9-34.89,13.06-.9,12.61,33.47,4.15-.29.59,8.55L189.1,272l-.59-8.55,4-.28Zm-44.43-1.23-12.39.85.59,8.55,4.27-.29.59,8.55-17.09,1.18-.59-8.55,4.27-.29-1.77-25.64-4.27.29-.59-8.54,17.09-1.18.59,8.54-4.27.29.59,8.55,12.39-.85-.59-8.55-4.27.29-.59-8.54,17.09-1.18.59,8.54-4.27.29,1.77,25.64,4.27-.29.59,8.55-17.09,1.18-.59-8.55,4.27-.29Zm21.66-115.68,10.47-.78.51,6.93-10.47.78,1.05,14.21,13.17-1,.51,6.93-20.79,1.54-3.6-48.51,20.79-1.54.51,6.93-13.17,1ZM192,131c.74,10,15.78,10.75,16.81,24.6.58,7.76-3,12.48-10.46,13s-11.7-3.59-12.27-11.35l-.22-3,7.21-.54.26,3.46c.26,3.47,1.87,4.6,4.3,4.42s3.86-1.54,3.6-5c-.74-10-15.78-10.74-16.81-24.6-.58-7.76,2.91-12.48,10.32-13s11.56,3.6,12.13,11.36l.11,1.52-7.21.54-.15-2c-.26-3.47-1.74-4.68-4.17-4.5S191.78,127.5,192,131Zm29.66,35.36-7.62.57-3.6-48.51,11.23-.83c7.62-.57,11.68,3.38,12.26,11.14l.47,6.31c.58,7.76-2.85,12.27-10.48,12.83l-3.6.27ZM247.84,115c7.49-.56,11.91,3.58,12.48,11.34l1.87,25.23c.57,7.76-3.19,12.5-10.67,13.05s-11.9-3.58-12.48-11.34l-1.87-25.23C236.6,120.34,240.36,115.6,247.84,115Zm42,32.77.56,7.49a14.33,14.33,0,0,0,1.27,5.83l-7.76.58c-.51-1.22-.85-2-1.14-5.91l-.56-7.62c-.33-4.51-2-6.06-5.45-5.8l-2.63.19,1.47,19.75-7.62.57-3.6-48.51,11.5-.85c7.9-.59,11.57,2.83,12.12,10.32l.28,3.81c.37,5-1,8.36-4.26,10.21C288,139.18,289.48,142.76,289.85,147.81Zm19.35,12-7.62.57-3.09-41.58-8,.59-.52-6.93,23.56-1.75.52,6.93-8,.59Zm15.17-38.68c.74,10,15.78,10.75,16.81,24.6.58,7.76-3,12.48-10.46,13s-11.7-3.59-12.27-11.35l-.22-3,7.21-.53.26,3.46c.26,3.47,1.87,4.6,4.3,4.42s3.86-1.54,3.6-5c-.74-10-15.78-10.75-16.81-24.61-.58-7.76,2.91-12.48,10.32-13s11.56,3.6,12.13,11.36l.11,1.52-7.21.54-.15-2c-.26-3.47-1.74-4.68-4.17-4.5S324.11,117.68,324.37,121.14ZM78,112.26l-5.8-40.86L257.87,10l187,61.44-1.84,12.93ZM92.64,277.64a13,13,0,0,1-7.27-6.34A12.44,12.44,0,0,1,84,266.36l-1.18-17.09a12.51,12.51,0,0,1,.67-5A12.91,12.91,0,0,1,86,239.95a13.06,13.06,0,0,1,3.87-3,12.49,12.49,0,0,1,4.94-1.35l8.54-.59a12.58,12.58,0,0,1,5,.66,12.83,12.83,0,0,1,7.31,6.37,12.52,12.52,0,0,1,1.35,4.91l.15,2.13-8.55.59-.15-2.13a4.29,4.29,0,0,0-4.57-4l-8.54.59a4.28,4.28,0,0,0-4,4.57l1.18,17.09a4.28,4.28,0,0,0,4.57,4l8.54-.59a4.29,4.29,0,0,0,4-4.57l-.15-2.14,8.55-.59.15,2.14a12.5,12.5,0,0,1-.66,5.08,12.92,12.92,0,0,1-6.37,7.28,12.57,12.57,0,0,1-4.91,1.35l-8.54.59A12.49,12.49,0,0,1,92.64,277.64Zm255.45,77.58h56.55l-1.43,10.05H359.67a1.18,1.18,0,1,0,0,2.37h43.2l-1.43,10.05h-46a1.18,1.18,0,1,0,0,2.37h45.65l-1.51,10.61L257.87,425.42,117.53,390.67,116,380.06h41.89a1.18,1.18,0,1,0,0-2.37H115.69l-1.43-10.05H153.7a1.18,1.18,0,1,0,0-2.37H113.92l-1.43-10.05h52.78a1.18,1.18,0,1,0,0-2.37H112.16l-1.43-10.05h36.65a1.18,1.18,0,0,0,0-2.37h-37L109,330.37h50a1.18,1.18,0,1,0,0-2.37H108.63l-1.43-10.05h58.07a1.18,1.18,0,0,0,0-2.37H106.87l-2.76-19.47,312.17-22.89-6,42.36H348.09a1.18,1.18,0,0,0,0,2.37h61.83L408.5,328H354.41a1.18,1.18,0,0,0,0,2.37h53.76l-1.43,10.05H366a1.18,1.18,0,1,0,0,2.37H406.4L405,352.84H348.09a1.18,1.18,0,0,0,0,2.37Zm74.67-99.83a16.11,16.11,0,0,1-5.46,1.3,22.43,22.43,0,0,1-5.63-.26,20.32,20.32,0,0,1-4.54-1.38l.13,1.89-8.55.59-.88-12.82,8.55-.59a20.17,20.17,0,0,0,2.31,2,12.05,12.05,0,0,0,2.3,1.31,9.55,9.55,0,0,0,2.56.68,16,16,0,0,0,3.16.06,7.23,7.23,0,0,0,3.78-1.21,2.83,2.83,0,0,0,1.35-2.58,3.39,3.39,0,0,0-.95-2.18,6.78,6.78,0,0,0-2.16-1.47,12.62,12.62,0,0,0-2.82-.88c-1-.19-2-.34-3-.44a26.67,26.67,0,0,1-8.47-1.87,16.39,16.39,0,0,1-5-3.27,9.9,9.9,0,0,1-2.47-3.84,15,15,0,0,1-.77-3.6,11.32,11.32,0,0,1,.73-5,12.19,12.19,0,0,1,2.69-4.14,14.17,14.17,0,0,1,4.22-2.93,15.41,15.41,0,0,1,5.37-1.32,21.58,21.58,0,0,1,5.47.24A18.6,18.6,0,0,1,419,215l-.13-1.83,8.55-.59.88,12.82-8.6.59c-.75-.72-1.47-1.36-2.16-1.91a10.28,10.28,0,0,0-2.17-1.32,10.1,10.1,0,0,0-2.47-.72,13.9,13.9,0,0,0-3.1-.09,5.75,5.75,0,0,0-3.85,1.49,3.52,3.52,0,0,0-1.19,2.72q.27,4,8.91,4.66a24.4,24.4,0,0,1,8.63,2,16.31,16.31,0,0,1,5.06,3.58,10.6,10.6,0,0,1,2.39,4,16.06,16.06,0,0,1,.68,3.3,10.75,10.75,0,0,1-.74,4.84,11.61,11.61,0,0,1-2.67,4A14.1,14.1,0,0,1,422.76,255.39Z"/><polygon class="cls-1" points="182.71 238.09 179.75 251.17 187.81 250.61 183.08 238.06 182.71 238.09"/><path class="cls-1" d="M279.7,236.55a5.12,5.12,0,0,0-5.48-4.77l-7.26.5.71,10.26,7.26-.5a5.12,5.12,0,0,0,4.77-5.48Z"/></svg>