<svg id="Layer_1" data-name="Layer 1" xmlns="http://www.w3.org/2000/svg" viewBox="0 0 509.6 443.39"><defs><style>.cls-1{fill:none;}.cls-2{fill:#fff;}</style></defs><title>logo</title><circle class="cls-1" cx="241.74" cy="358.27" r="8.55"/><circle class="cls-1" cx="276.91" cy="358.27" r="8.55"/><circle class="cls-1" cx="289.42" cy="338.57" r="4.16"/><path class="cls-1" d="M220.68,341.62a0.4,0.4,0,0,0-.61,0L217,345.05a0.44,0.44,0,0,0,0,.31v4.55c0,0.25-.11.52,0.14,0.52h6.35a0.57,0.57,0,0,0,.51-0.52v-4.8a0.46,0.46,0,0,0-.14-0.32Z"/><path class="cls-1" d="M107.36,320.43h58.41a1,1,0,1,1,0,2H107.69l1.43,10h50.33a1,1,0,1,1,0,2h-50l1.43,10h37a1.54,1.54,0,0,1,0,3H111.22l1.43,10h53.12a1,1,0,1,1,0,2H113l1.43,10h39.78a1.54,1.54,0,0,1,0,3H114.74l1.43,10H158.4a1,1,0,1,1,0,2H116.51L118,395.07l140.34,34.77,141.73-34.76,1.51-10.64H355.95a1,1,0,1,1,0-2h46l1.43-10h-43.2a1.54,1.54,0,0,1,0-3H403.7l1.43-10H348.58a1,1,0,1,1,0-2h56.88l1.43-10H366.48a1.54,1.54,0,0,1,0-3h40.75l1.43-10H354.9a1,1,0,1,1,0-2H409l1.43-10H348.58a1,1,0,1,1,0-2h62.17l6-42.46L104.59,300.75Zm97.89,6a28.72,28.72,0,0,1,6.42-7.77,9.53,9.53,0,0,1,3.14-7c4.92-4.66,16.31-4.4,16.31-3.37,0,0.38.14,1.59,0.3,3a18.67,18.67,0,0,1,5.06,1.42c16,7.08,22.47,6.66,22.47,6.66s5.91,0.21,22.85-6.91a18.5,18.5,0,0,1,4.44-1.23c0.16-1.42.3-2.61,0.3-3,0-1,11.39-1.29,16.31,3.37a9.52,9.52,0,0,1,3.12,6.57,28.85,28.85,0,0,1,6.88,8.16c7.44,13.28,18.58,54.72,3.44,66.13a7.79,7.79,0,0,1-9.32.08,22.45,22.45,0,0,1-5-5.61c-5.85-8.8-8.24-19.16-14.89-20.46a10.6,10.6,0,0,1-9,4.4,16.57,16.57,0,0,1-13-5.7s-4,.15-5.95.2c0.29,0,.53,0,0.7,0h-1.4c0.17,0,.41,0,0.7,0-1.92-.05-5.95-0.23-5.95-0.23a16.58,16.58,0,0,1-13,5.71,10.6,10.6,0,0,1-9-4.4c-6.65,1.29-9,11.66-14.89,20.46a22.46,22.46,0,0,1-5,5.61,7.79,7.79,0,0,1-9.32-.08C186.67,381.13,197.81,339.7,205.25,326.41Z"/><path class="cls-1" d="M223.31,339l3.42,3.23a0.56,0.56,0,0,0,.31.2h4.55a0.59,0.59,0,0,0,.42-0.61v-6.35c0-.25-0.17,0-0.42,0h-4.8a0.47,0.47,0,0,0-.32-0.06l-3.17,3A0.47,0.47,0,0,0,223.31,339Z"/><path class="cls-1" d="M209.05,342.43h4.8a0.52,0.52,0,0,0,.32-0.19l3.17-3.22a0.39,0.39,0,0,0,0-.59l-3.42-3.08a0.51,0.51,0,0,0-.31.09h-4.55l-0.06,0a0.13,0.13,0,0,1,0,.05v6.35C209,342.07,208.8,342.43,209.05,342.43Z"/><circle class="cls-1" cx="297.52" cy="330.47" r="4.16"/><polygon class="cls-1" points="445.41 75.85 258.36 14.41 72.7 75.84 78.5 116.69 443.57 88.78 445.41 75.85"/><circle class="cls-1" cx="297.52" cy="346.67" r="4.16"/><circle class="cls-1" cx="305.61" cy="338.57" r="4.16"/><path class="cls-1" d="M220,335.67a0.46,0.46,0,0,0,.65,0l3.2-3.42a0.48,0.48,0,0,0,.15-0.31v-4.55c0-.25-0.26.05-0.51,0.05h-6.35a0.14,0.14,0,0,1-.14-0.08,0.14,0.14,0,0,1,0,0v4.8a0.42,0.42,0,0,0,0,.32Z"/><polygon class="cls-1" points="432.05 169.93 89.77 196.1 93.32 221.14 428.27 196.58 432.05 169.93"/><path class="cls-2" d="M259.75,365.52h0Z"/><path class="cls-2" d="M201.81,392.54a7.79,7.79,0,0,0,9.32.08,22.45,22.45,0,0,0,5-5.61c5.85-8.8,8.24-19.16,14.89-20.46a10.6,10.6,0,0,0,9,4.4,16.57,16.57,0,0,0,13-5.7s4,0.2,5.95.25,5.95-.25,5.95-0.25a16.57,16.57,0,0,0,13,5.7,10.6,10.6,0,0,0,9-4.4c6.65,1.29,9,11.65,14.89,20.46a22.45,22.45,0,0,0,5,5.61,7.79,7.79,0,0,0,9.32-.08c15.14-11.41,4-52.85-3.44-66.13a28.85,28.85,0,0,0-6.88-8.16,9.52,9.52,0,0,0-3.12-6.57c-4.92-4.66-16.31-4.4-16.31-3.37,0,0.37-.14,1.56-0.3,3a18.5,18.5,0,0,0-4.44,1.23c-16.94,7.12-22.85,6.91-22.85,6.91s-6.46.42-22.47-6.66a18.67,18.67,0,0,0-5.06-1.42c-0.16-1.44-.3-2.65-0.3-3,0-1-11.39-1.29-16.31,3.37a9.53,9.53,0,0,0-3.14,7,28.72,28.72,0,0,0-6.42,7.77C197.81,339.7,186.67,381.14,201.81,392.54Zm95.71-41.71a4.16,4.16,0,1,1,4.16-4.16A4.16,4.16,0,0,1,297.52,350.83Zm8.1-16.41a4.16,4.16,0,1,1-4.16,4.16A4.16,4.16,0,0,1,305.61,334.42Zm-8.1-8.1a4.16,4.16,0,1,1-4.16,4.16A4.16,4.16,0,0,1,297.52,326.32Zm-8.1,8.1a4.16,4.16,0,1,1-4.16,4.16A4.16,4.16,0,0,1,289.42,334.42Zm-12.51,15.3a8.55,8.55,0,1,1-8.55,8.55A8.55,8.55,0,0,1,276.91,349.72Zm-35.17,0a8.55,8.55,0,1,1-8.55,8.55A8.55,8.55,0,0,1,241.74,349.72Zm-17.74.19a0.57,0.57,0,0,1-.51.52h-6.35c-0.25,0-.14-0.27-0.14-0.52v-4.55a0.44,0.44,0,0,1,0-.31l3.11-3.42a0.4,0.4,0,0,1,.61,0l3.18,3.17a0.46,0.46,0,0,1,.14.32v4.8Zm2.78-14.48h4.8c0.25,0,.42-0.21.42,0v6.35a0.59,0.59,0,0,1-.42.61H227a0.56,0.56,0,0,1-.31-0.2L223.31,339a0.47,0.47,0,0,1,0-.67l3.17-3A0.47,0.47,0,0,1,226.78,335.43ZM217,332.18v-4.8a0.14,0.14,0,0,0,0,0,0.14,0.14,0,0,0,.14.08h6.35c0.25,0,.51-0.3.51-0.05v4.55a0.48,0.48,0,0,1-.15.31l-3.2,3.42a0.46,0.46,0,0,1-.65,0l-3-3.17A0.42,0.42,0,0,1,217,332.18Zm-8,9.64v-6.35a0.13,0.13,0,0,0,0-.05l0.06,0h4.55a0.51,0.51,0,0,1,.31-0.09l3.42,3.08a0.39,0.39,0,0,1,0,.59l-3.17,3.22a0.52,0.52,0,0,1-.32.19h-4.8C208.8,342.43,209,342.07,209,341.82Z"/><path class="cls-2" d="M289.16,133.1L288.87,129c-0.21-3-1.33-4.24-3.66-4.07l-3.17.23L283,138l2.57-.18C288,137.64,289.4,136.45,289.16,133.1Z"/><path class="cls-2" d="M322.4,232.16l-7.22.53,0.75,10.2,7.22-.53A5.11,5.11,0,1,0,322.4,232.16Z"/><path class="cls-2" d="M264.88,130c-0.21-3-1.61-4-3.71-3.88s-3.33,1.38-3.12,4.37l1.62,22.62c0.21,3,1.61,4,3.71,3.88s3.33-1.38,3.12-4.37Z"/><polygon class="cls-2" points="277.68 235.47 274.79 248.49 282.8 247.9 278.04 235.44 277.68 235.47"/><path class="cls-2" d="M242.85,138.22l-0.45-6.28c-0.21-3-1.42-3.87-3.51-3.72l-3.11.22,1,14.18,3.11-.22C242,142.25,243.06,141.21,242.85,138.22Z"/><path class="cls-2" d="M415.27,359.43h-0.56v0C415.16,359.52,415.4,359.43,415.27,359.43Z"/><path class="cls-2" d="M415.27,357.43c0.09,0,0-.11-0.22-0.1v0.1h0.24Z"/><path class="cls-2" d="M509,291.05L489,252.48l13.89-41.2-39.75,2.91-1.55-20.05-23.62,1.73,3.79-26.69h0.09l-1.17,8.26L472.9,166.8l0.38,0L466.81,87l-13.56,1,2.66-18.72L258.34,4.43,62.21,69.33l4.69,33L0.49,106.69,22.23,145.2,7,186.46l43.27-2.83L51.48,199l28.83-2.2,2.39,16.86-32.15,10.6,6.18,79.77,38.4-2.82,14.41,101.53,148.81,36.84,150.23-36.94,6.12-43.23h0l0.32-2h0l11.39-80.36,0.09-.07-2.89,20.35ZM78.5,116.69L72.7,75.84,258.36,14.41l187,61.44-1.84,12.93Zm256.22,31.07c-0.22-3.05-1.7-5.23-6.28-8.69-5.85-4.45-7.84-7.8-8.18-12.59-0.48-6.7,2.54-10.77,8.94-11.23s10,3.14,10.45,9.84l0.09,1.32-6.22.44-0.12-1.74c-0.21-3-1.49-4-3.59-3.89s-3.21,1.37-3,4.36,1.7,5.23,6.28,8.69c5.85,4.45,7.84,7.8,8.18,12.59,0.48,6.7-2.6,10.77-9.06,11.24s-10.09-3.13-10.57-9.83l-0.18-2.57,6.22-.45,0.21,3c0.21,3,1.61,4,3.7,3.83S334.94,150.76,334.72,147.77ZM313.63,159l-6.58.47-2.57-35.91-6.88.49-0.43-6,20.35-1.46,0.43,6-6.88.49Zm-29,2.08-6.58.47-3-41.89,9.93-.71c6.82-.49,10,2.47,10.44,8.94l0.24,3.29c0.31,4.31-.87,7.16-3.71,8.75V140c3.39,1.14,4.69,4.18,5,8.54L297.4,155a12.39,12.39,0,0,0,1.08,5l-6.7.48c-0.44-1.05-.72-1.69-1-5.1l-0.47-6.58c-0.28-3.89-1.7-5.23-4.69-5l-2.27.16Zm-20.79,2c-6.46.46-10.27-3.12-10.75-9.82L251.5,131.4c-0.48-6.7,2.78-10.79,9.24-11.25S271,123.27,271.49,130l1.56,21.78C273.53,158.46,270.27,162.54,263.81,163Zm-25.47,1.34-6.58.47-3-41.89,9.7-.69c6.58-.47,10.08,2.95,10.55,9.65l0.39,5.45c0.48,6.7-2.49,10.58-9.07,11.06l-3.11.22Zm-17.62-8.42c-0.22-3.05-1.7-5.23-6.28-8.69-5.85-4.45-7.84-7.8-8.18-12.59-0.48-6.7,2.54-10.77,8.94-11.23s10,3.14,10.45,9.84l0.09,1.32-6.22.45-0.12-1.74c-0.21-3-1.49-4-3.59-3.89s-3.21,1.37-3,4.37,1.7,5.23,6.28,8.69c5.85,4.45,7.84,7.8,8.18,12.59,0.48,6.7-2.6,10.77-9.06,11.23s-10.09-3.13-10.57-9.83l-0.18-2.57,6.22-.45,0.21,3c0.21,3,1.61,4,3.7,3.83S220.93,158.91,220.72,155.92Zm-17.11-7.14-12,.86-0.43-6,12-.86ZM176,144.44l9-.65,0.43,6-9,.65,0.88,12.27,11.37-.81,0.43,6-18,1.28-3-41.89,18-1.28,0.43,6-11.37.81Zm234.71,176H348.58a1,1,0,1,0,0,2h61.83l-1.43,10H354.9a1,1,0,1,0,0,2h53.76l-1.43,10H366.48a1.54,1.54,0,0,0,0,3h40.41l-1.43,10H348.58a1,1,0,1,0,0,2h56.55l-1.43,10H360.16a1.54,1.54,0,0,0,0,3h43.2l-1.43,10h-46a1,1,0,1,0,0,2H401.6l-1.51,10.64L258.36,429.83,118,395.07l-1.51-10.64H158.4a1,1,0,1,0,0-2H116.17l-1.43-10h39.44a1.54,1.54,0,0,0,0-3H114.41l-1.43-10h52.78a1,1,0,1,0,0-2H112.65l-1.43-10h36.65a1.54,1.54,0,0,0,0-3h-37l-1.43-10h50a1,1,0,1,0,0-2H109.12l-1.43-10h58.07a1,1,0,1,0,0-2H107.36l-2.76-19.68L416.76,278Zm-259.6-50,4.25-.31,0.63,8.5-17,1.26-0.63-8.5,4.25-.31-1.34-18.21-7.51,14-9.49-12.78,1.34,18.21,4.25-.31,0.63,8.5-17,1.26-0.63-8.5,4.25-.31-1.88-25.49-4.25.31-0.63-8.5,12.87-1L132.62,251,140,237.09l12.87-1,0.63,8.5-4.25.31Zm19.5-18.53,8.5-.63,0.63,8.5-8.5.63,0.63,8.5,8.5-.63L180.08,264l8.5-.63,0.94,12.74-29.74,2.2-0.63-8.5,4.25-.31L161.52,244l-4.25.31-0.63-8.5,29.74-2.2,0.94,12.74-8.5.63-0.31-4.25-8.5.63Zm42.5-20.22,8.5-.63,0.94,12.74-8.56.63a27.84,27.84,0,0,0-2.15-1.88,10.22,10.22,0,0,0-2.17-1.3,10,10,0,0,0-2.46-.7,13.64,13.64,0,0,0-3.09-.08,5.72,5.72,0,0,0-3.82,1.5,3.5,3.5,0,0,0-1.17,2.71q0.29,3.94,8.88,4.59a24.34,24.34,0,0,1,8.59,2,16.2,16.2,0,0,1,5.05,3.53,10.55,10.55,0,0,1,2.4,4,15.88,15.88,0,0,1,.7,3.27,10.7,10.7,0,0,1-.71,4.81,11.53,11.53,0,0,1-2.63,4,14.06,14.06,0,0,1-4.19,2.81,16.09,16.09,0,0,1-5.43,1.32,22.22,22.22,0,0,1-5.6-.23,20.06,20.06,0,0,1-4.52-1.34l0.14,1.88-8.5.63-0.94-12.74,8.5-.63a20.48,20.48,0,0,0,2.31,1.93,12,12,0,0,0,2.29,1.29,9.52,9.52,0,0,0,2.55.67,16.11,16.11,0,0,0,3.14,0,7.15,7.15,0,0,0,3.75-1.22,2.82,2.82,0,0,0,1.33-2.57,3.36,3.36,0,0,0-1-2.16,6.88,6.88,0,0,0-2.15-1.46,12.63,12.63,0,0,0-2.81-.86q-1.52-.28-3-0.42a26.47,26.47,0,0,1-8.43-1.82,16.23,16.23,0,0,1-5-3.23,9.9,9.9,0,0,1-2.48-3.81,15,15,0,0,1-.78-3.57,11.26,11.26,0,0,1,.7-4.93,12.12,12.12,0,0,1,2.66-4.13,14,14,0,0,1,4.18-2.93,15.19,15.19,0,0,1,5.33-1.34,21.57,21.57,0,0,1,5.45.21,18.58,18.58,0,0,1,4.31,1.33ZM286,256.21l-13.11,1-1,4.34,4-.3,0.63,8.5-17,1.26-0.63-8.5,4.13-.3,7.68-34.74,13-1,12.71,33.23,4.13-.3,0.63,8.5-17,1.25-0.63-8.5,4-.3Zm-33.6-14.6-0.31-4.25-4.25.31,1.88,25.49,4.25-.31,0.63,8.5-17,1.26L237,264.1l4.25-.31-1.88-25.49-4.25.31,0.31,4.25-8.5.63-0.94-12.74,34-2.51L260.88,241Zm86,15,3.7-.27,0.63,8.5-17,1.26-0.63-8.5,3.46-.26-4.39-6.51-7.65.56,0.5,6.8,4.25-.31,0.63,8.5-17,1.25-0.63-8.5,4.25-.31-1.88-25.49-4.25.31-0.63-8.5L322,223.65a13.36,13.36,0,0,1,5.31.77,14.24,14.24,0,0,1,4.46,2.6,13.66,13.66,0,0,1,3.2,4.07,13.61,13.61,0,0,1,.5,11.28,14.29,14.29,0,0,1-3.36,4.89Zm20.21-1.49,4.25-.31,0.63,8.5-17,1.26-0.63-8.5,4.25-.31-1.88-25.49-4.25.31-0.63-8.5,17-1.26,0.63,8.5-4.25.31Zm29.31-2.17,4.25-.31,0.63,8.5-17,1.26-0.63-8.5,4.25-.31-1.88-25.49-4.25.31,0.31,4.25-8.5.63-0.94-12.74,34-2.51,0.94,12.74-8.5.63-0.31-4.25-4.25.31ZM93.32,221.14l-3.56-25,342.28-26.17-3.78,26.66Z"/></svg>